<svg width="132" height="38" viewBox="0 0 132 38" fill="none" xmlns="http://www.w3.org/2000/svg">
<path d="M58.656 26V9.2H69.12V11.816H61.56V16.256H68.52V18.896H61.56V26H58.656ZM71.5958 26V9.2H74.3558V26H71.5958ZM83.4696 26.336C82.2856 26.336 81.2216 26.096 80.2776 25.616C79.3496 25.12 78.6136 24.424 78.0696 23.528C77.5416 22.616 77.2776 21.528 77.2776 20.264V19.88C77.2776 18.616 77.5416 17.528 78.0696 16.616C78.6136 15.704 79.3496 15.008 80.2776 14.528C81.2216 14.048 82.2856 13.808 83.4696 13.808C84.6536 13.808 85.7096 14.048 86.6376 14.528C87.5656 15.008 88.2936 15.704 88.8216 16.616C89.3656 17.528 89.6376 18.616 89.6376 19.88V20.264C89.6376 21.528 89.3656 22.616 88.8216 23.528C88.2936 24.424 87.5656 25.12 86.6376 25.616C85.7096 26.096 84.6536 26.336 83.4696 26.336ZM83.4696 23.888C84.4776 23.888 85.3016 23.568 85.9416 22.928C86.5816 22.272 86.9016 21.36 86.9016 20.192V19.952C86.9016 18.784 86.5816 17.88 85.9416 17.24C85.3016 16.584 84.4776 16.256 83.4696 16.256C82.4616 16.256 81.6376 16.584 80.9976 17.24C80.3576 17.88 80.0376 18.784 80.0376 19.952V20.192C80.0376 21.36 80.3576 22.272 80.9976 22.928C81.6376 23.568 82.4616 23.888 83.4696 23.888ZM93.6066 26L91.7586 14.144H94.4946L95.7666 24.152H96.1746L97.9746 14.144H102.391L104.191 24.152H104.599L105.871 14.144H108.607L106.759 26H102.175L100.399 15.992H99.9906L98.1906 26H93.6066ZM110.121 26L114.729 9.2H119.745L124.353 26H121.377L120.369 22.16H114.105L113.097 26H110.121ZM114.777 19.52H119.697L117.441 11H117.033L114.777 19.52ZM126.484 26V9.2H129.388V26H126.484Z" fill="white"/>
<path d="M12.6665 26.4802C17.6043 21.5352 20.0739 17.5783 20.0739 14.6111C20.0739 10.1602 18.5924 10.1602 17.1109 10.1602C15.6295 10.1602 14.1006 11.7699 14.148 14.6111C14.1984 17.6496 16.6043 21.8468 17.8517 23.5129C20.0739 26.4802 21.5554 27.222 23.0369 24.9965L25.9998 20.5456C26.4932 24.5025 27.9747 26.4802 30.4443 26.4802C31.2295 26.4802 34.3539 23.5129 34.8887 23.5129C35.6546 23.5129 37.1361 24.5025 39.3332 26.4802" stroke="white" stroke-width="3" stroke-linecap="round" stroke-linejoin="round"/>
<path d="M17.5556 36L15.3333 33.7333H8.66667C6.89856 33.7333 5.20286 33.0169 3.95262 31.7417C2.70238 30.4664 2 28.7368 2 26.9333V8.8C2 6.99653 2.70238 5.26692 3.95262 3.99167C5.20286 2.71643 6.89856 2 8.66667 2H35.3333C37.1014 2 38.7971 2.71643 40.0474 3.99167C41.2976 5.26692 42 6.99653 42 8.8V19" stroke="white" stroke-width="3" stroke-linecap="round" stroke-linejoin="round"/>
</svg>
